<svg xmlns="http://www.w3.org/2000/svg" xmlns:xlink="http://www.w3.org/1999/xlink" viewBox="0 0 66 65" fill="#fff" fill-rule="evenodd" stroke="#000" stroke-linecap="round" stroke-linejoin="round"><use xlink:href="#A" x=".5" y=".5"/><symbol id="A" overflow="visible"><g stroke="none"><path d="M61.5 64H2.447C1.1 64 0 62.897 0 61.55V2.45C0 1.102 1.1 0 2.447 0h59.105C62.9 0 64 1.102 64 2.45V61.6c-.06 1.286-1.163 2.4-2.5 2.4z" fill="#ec671c"/><path d="M50.1 20.2h-5.017c-.245 0-.367.184-.367.367v22.945c0 .184.184.367.367.367H50.1c.184 0 .367-.184.367-.367V20.558c.06-.184-.122-.367-.367-.367zm-17.13 0H13.83c-.245 0-.367.184-.367.367v22.945c0 .184.184.367.367.367h5.017c.245 0 .367-.184.367-.367v-18c0-.184.184-.367.367-.367h10.83c3.06 0 3.916 2.325 3.916 3.855v14.5c0 .184.184.367.367.367h5.078c.245 0 .367-.184.367-.367V27.227c0-1.346-.184-3.304-1.897-4.956-1.774-1.774-3.426-2.08-5.262-2.08zm-3.54 9.108h-5.262c-.245 0-.367.184-.367.367v13.828c0 .184.184.367.367.367h5.262c.184 0 .367-.184.367-.367V29.675c0-.184-.122-.367-.367-.367z" fill-rule="nonzero"/></g></symbol></svg>